# xmcd
#
# Track frame offsets:
#	150
#	14429
#	28228
#	46055
#	60492
#	74780
#	91280
#	107466
#	124781
#	139128
#	157207
#	172843
#	186003
#
# Disc length: 2693 seconds
#
# Revision: 0
# Processed by: cddbd v1.5.1PL0 Copyright (c) Steve Scherf et al.
# Submitted via: dBpowerAMP V4.0
#
DISCID=b00a830d
DTITLE=Terri Clark - Greatest Hits
DYEAR=1900
DGENRE=
TTITLE0=Better Things To Do
TTITLE1=When Boy Meets Girl
TTITLE2=If I Were You
TTITLE3=Poor, Poor Pitful Me
TTITLE4=Emotional Girl
TTITLE5=Now That I Found You
TTITLE6=You're Easy On The Eyes
TTITLE7=Everytime I Cry
TTITLE8=A Little Gasoline
TTITLE9=No Fear
TTITLE10=I Just Wanna Be Mad
TTITLE11=I Wanna Do It All
TTITLE12=Girls Lie Too
EXTD=
EXTT0=
EXTT1=
EXTT2=
EXTT3=
EXTT4=
EXTT5=
EXTT6=
EXTT7=
EXTT8=
EXTT9=
EXTT10=
EXTT11=
EXTT12=
PLAYORDER=
